<svg version="1.1" id="Layer_1" xmlns="http://www.w3.org/2000/svg" xmlns:xlink="http://www.w3.org/1999/xlink" x="0px" y="0px"
	 width="100%" viewBox="0 0 139 116" enable-background="new 0 0 139 116" xml:space="preserve">
<path fill="#FDFDFC" opacity="1.000000" stroke="none" 
	d="
M87.000000,117.000000 
	C58.000004,117.000000 29.500008,117.000000 1.000008,117.000000 
	C1.000005,78.333344 1.000005,39.666683 1.000003,1.000018 
	C47.333317,1.000012 93.666634,1.000012 139.999969,1.000006 
	C139.999969,39.666649 139.999969,78.333298 139.999985,116.999969 
	C122.500000,117.000000 105.000000,117.000000 87.000000,117.000000 
M127.152733,16.279911 
	C127.815361,16.217289 128.478821,16.093569 129.140472,16.102619 
	C132.008072,16.141846 134.900589,15.760941 134.788986,12.136972 
	C134.673599,8.390068 131.576660,8.542233 128.830368,8.632141 
	C118.480728,8.970970 110.659523,16.216642 109.197479,27.061420 
	C106.707336,45.532131 104.320602,64.016830 101.912704,82.498558 
	C101.085426,88.848312 99.650734,90.211739 93.272064,90.221031 
	C75.121315,90.247459 56.970509,90.231384 38.819725,90.232567 
	C36.821480,90.232697 34.639908,89.733421 32.875515,90.376740 
	C31.037031,91.047096 29.600954,92.821091 27.988941,94.112549 
	C29.564501,95.409492 30.974543,97.073448 32.769863,97.883118 
	C34.119263,98.491676 35.963329,98.003387 37.515507,98.003387 
	C38.542744,103.630974 41.176357,107.152412 46.585388,107.793877 
	C52.065224,108.443741 54.936150,106.048912 58.534222,98.201172 
	C63.331814,98.201172 68.115746,98.201172 73.131142,98.201172 
	C74.296967,103.922302 77.237274,107.843170 83.466972,107.810730 
	C89.687920,107.778343 92.476242,103.704742 93.690811,98.337692 
	C104.552345,96.958595 107.913811,93.790802 109.441368,82.930260 
	C111.990768,64.804703 114.416023,46.660645 116.727081,28.503185 
	C117.506912,22.376213 120.514748,18.375605 127.152733,16.279911 
M35.455166,33.984013 
	C37.731289,49.884712 42.025631,65.162399 49.049931,79.673851 
	C50.920094,83.537399 52.996891,85.427826 57.692104,85.199829 
	C67.317673,84.732445 76.981888,85.072067 86.630096,85.045372 
	C87.766632,85.042221 88.902580,84.825600 90.855057,84.623405 
	C71.578072,72.351326 59.171864,55.562325 50.233135,35.963787 
	C45.999783,26.681993 46.115284,26.625536 36.133110,28.178993 
	C35.845333,28.223780 35.598385,28.530893 35.045673,28.914896 
	C35.118237,30.202545 35.200741,31.666557 35.455166,33.984013 
M34.331810,63.086586 
	C31.728823,51.959259 29.125834,40.831932 26.419214,29.261599 
	C22.416513,29.750174 17.997986,30.332289 13.568777,30.816742 
	C9.957752,31.211706 8.798794,33.165882 9.282028,36.652168 
	C10.949945,48.685322 12.439855,60.743263 14.128978,72.773308 
	C15.054192,79.362747 20.015448,84.511116 26.201300,84.925789 
	C31.632717,85.289886 37.107849,85.001854 42.816715,85.001854 
	C39.990452,77.685661 37.313049,70.754807 34.331810,63.086586 
M96.536224,77.765060 
	C97.529922,70.864990 98.344719,63.932163 99.599609,57.079929 
	C100.152382,54.061516 99.381310,52.612133 96.630638,51.309986 
	C86.382202,46.458447 77.887154,39.363106 70.957047,30.385086 
	C65.978706,23.935604 62.880966,23.210180 55.039349,26.576508 
	C56.886829,34.492996 65.131958,49.252598 72.944168,58.503220 
	C79.501717,66.268173 86.336266,73.726662 96.536224,77.765060 
M93.388992,21.005898 
	C87.586403,21.766491 81.783813,22.527084 75.752602,23.317646 
	C79.660515,31.340654 92.074097,41.770153 101.293785,44.844711 
	C102.183235,37.886410 103.310364,31.063889 103.696365,24.199690 
	C103.765404,22.971994 100.946747,21.119816 99.127548,20.401268 
	C97.788071,19.872208 95.904381,20.720961 93.388992,21.005898 
z"/>
<path fill="#2D2D2D" opacity="1.000000" stroke="none" 
	d="
M126.768723,16.396591 
	C120.514748,18.375605 117.506912,22.376213 116.727081,28.503185 
	C114.416023,46.660645 111.990768,64.804703 109.441368,82.930260 
	C107.913811,93.790802 104.552345,96.958595 93.690811,98.337692 
	C92.476242,103.704742 89.687920,107.778343 83.466972,107.810730 
	C77.237274,107.843170 74.296967,103.922302 73.131142,98.201172 
	C68.115746,98.201172 63.331814,98.201172 58.534222,98.201172 
	C54.936150,106.048912 52.065224,108.443741 46.585388,107.793877 
	C41.176357,107.152412 38.542744,103.630974 37.515507,98.003387 
	C35.963329,98.003387 34.119263,98.491676 32.769863,97.883118 
	C30.974543,97.073448 29.564501,95.409492 27.988939,94.112549 
	C29.600954,92.821091 31.037031,91.047096 32.875515,90.376740 
	C34.639908,89.733421 36.821480,90.232697 38.819725,90.232567 
	C56.970509,90.231384 75.121315,90.247459 93.272064,90.221031 
	C99.650734,90.211739 101.085426,88.848312 101.912704,82.498558 
	C104.320602,64.016830 106.707336,45.532131 109.197479,27.061420 
	C110.659523,16.216642 118.480728,8.970970 128.830368,8.632141 
	C131.576660,8.542233 134.673599,8.390068 134.788986,12.136972 
	C134.900589,15.760941 132.008072,16.141846 129.140472,16.102619 
	C128.478821,16.093569 127.815361,16.217289 126.768723,16.396591 
z"/>
<path fill="#6FB65B" opacity="1.000000" stroke="none" 
	d="
M35.369202,33.557289 
	C35.200741,31.666557 35.118237,30.202545 35.045673,28.914896 
	C35.598385,28.530893 35.845333,28.223780 36.133110,28.178993 
	C46.115284,26.625536 45.999783,26.681993 50.233135,35.963787 
	C59.171864,55.562325 71.578072,72.351326 90.855057,84.623405 
	C88.902580,84.825600 87.766632,85.042221 86.630096,85.045372 
	C76.981888,85.072067 67.317673,84.732445 57.692104,85.199829 
	C52.996891,85.427826 50.920094,83.537399 49.049931,79.673851 
	C42.025631,65.162399 37.731289,49.884712 35.369202,33.557289 
z"/>
<path fill="#5BA059" opacity="1.000000" stroke="none" 
	d="
M34.483727,63.455269 
	C37.313049,70.754807 39.990452,77.685661 42.816715,85.001854 
	C37.107849,85.001854 31.632717,85.289886 26.201300,84.925789 
	C20.015448,84.511116 15.054192,79.362747 14.128978,72.773308 
	C12.439855,60.743263 10.949945,48.685322 9.282028,36.652168 
	C8.798794,33.165882 9.957752,31.211706 13.568777,30.816742 
	C17.997986,30.332289 22.416513,29.750174 26.419214,29.261599 
	C29.125834,40.831932 31.728823,51.959259 34.483727,63.455269 
z"/>
<path fill="#89BD58" opacity="1.000000" stroke="none" 
	d="
M96.168167,77.938248 
	C86.336266,73.726662 79.501717,66.268173 72.944168,58.503220 
	C65.131958,49.252598 56.886829,34.492996 55.039349,26.576508 
	C62.880966,23.210180 65.978706,23.935604 70.957047,30.385086 
	C77.887154,39.363106 86.382202,46.458447 96.630638,51.309986 
	C99.381310,52.612133 100.152382,54.061516 99.599609,57.079929 
	C98.344719,63.932163 97.529922,70.864990 96.168167,77.938248 
z"/>
<path fill="#F3CD4E" opacity="1.000000" stroke="none" 
	d="
M93.826096,20.980827 
	C95.904381,20.720961 97.788071,19.872208 99.127548,20.401268 
	C100.946747,21.119816 103.765404,22.971994 103.696365,24.199690 
	C103.310364,31.063889 102.183235,37.886410 101.293785,44.844711 
	C92.074097,41.770153 79.660515,31.340654 75.752602,23.317646 
	C81.783813,22.527084 87.586403,21.766491 93.826096,20.980827 
z"/>
</svg>